<?xml version="1.0" encoding="UTF-8"?>
<svg width="44px" height="40px" viewBox="0 0 44 40" version="1.1" xmlns="http://www.w3.org/2000/svg" xmlns:xlink="http://www.w3.org/1999/xlink">
    <!-- Generator: sketchtool 51.2 (57519) - http://www.bohemiancoding.com/sketch -->
    <title>24FB8E2F-3B07-461E-9087-F26F2DF58039</title>
    <desc>Created with sketchtool.</desc>
    <defs></defs>
    <g id="Page-1" stroke="none" stroke-width="1" fill="none" fill-rule="evenodd">
        <g id="Home" transform="translate(-171.000000, -3045.000000)" fill="#8D89FF">
            <g id="section-4" transform="translate(171.000000, 2740.000000)">
                <g id="Dl--model" transform="translate(0.000000, 305.000000)">
                    <path d="M6.26806899,13.0900647 C5.84785401,12.8807916 5.67685176,12.3704908 5.88612478,11.9502758 C6.09539779,11.5300608 6.60569864,11.3590586 7.02591362,11.5683316 L22.3959593,19.2228322 C22.8161743,19.4321052 22.9871765,19.9424061 22.7779035,20.362621 C22.5686305,20.782836 22.0583296,20.9538383 21.6381146,20.7445653 L6.26806899,13.0900647 Z" id="Line-3" fill-rule="nonzero"></path>
                    <path d="M36.8843456,11.6078733 C37.3043172,11.3981122 37.8148164,11.5685215 38.0245774,11.988493 C38.2343385,12.4084646 38.0639293,12.9189638 37.6439577,13.1287248 L22.396843,20.7441245 C21.9768714,20.9538856 21.4663723,20.7834763 21.2566112,20.3635048 C21.0468501,19.9435332 21.2172594,19.433034 21.6372309,19.2232729 L36.8843456,11.6078733 Z" id="Line-3-Copy-2" fill-rule="nonzero"></path>
                    <polygon id="Line-3-Copy-3" fill-rule="nonzero" points="38.3192957 9.4350121 37.7035192 11.0195686 23.6529072 5.55934213 24.2686837 3.97478565"></polygon>
                    <polygon id="Line-3-Copy-4" fill-rule="nonzero" points="6.21161259 11.0438347 5.59469469 9.45972224 19.6354418 3.99168353 20.2523597 5.57579599"></polygon>
                    <polygon id="Line-3-Copy-5" fill-rule="nonzero" points="4.57204614 13.2809958 5.95237371 12.2886774 21.4203403 33.8048167 20.0400127 34.7971351"></polygon>
                    <polygon id="Line-3-Copy-6" fill-rule="nonzero" points="38.0798293 12.2147499 39.459153 13.2084631 23.8737764 34.8417483 22.4944526 33.8480351"></polygon>
                    <polygon id="Line-3-Copy-7" fill-rule="nonzero" points="24.3387667 36.018653 23.7221552 34.4344212 37.6643227 29.0078785 38.2809342 30.5921102"></polygon>
                    <path d="M21.6357581,20.7433871 C21.2161938,20.5328126 21.0467741,20.0219842 21.2573486,19.6024199 C21.4679231,19.1828556 21.9787515,19.0134358 22.3983158,19.2240103 L37.6304235,26.8688291 C38.0499878,27.0794036 38.2194075,27.590232 38.0088331,28.0097963 C37.7982586,28.4293607 37.2874302,28.5987804 36.8678658,28.3882059 L21.6357581,20.7433871 Z" id="Line-3-Copy-8" fill-rule="nonzero"></path>
                    <path d="M21.6366436,19.2235666 C22.056453,19.0134811 22.5670836,19.1834959 22.7771691,19.6033053 C22.9872546,20.0231147 22.8172397,20.5337454 22.3974304,20.7438309 L6.9034671,28.4974843 C6.48365771,28.7075698 5.97302703,28.5375549 5.76294157,28.1177455 C5.5528561,27.6979362 5.72287093,27.1873055 6.14268032,26.97722 L21.6366436,19.2235666 Z" id="Line-3-Copy-9" fill-rule="nonzero"></path>
                    <polygon id="Line-3-Copy-10" fill-rule="nonzero" points="20.3291013 34.4748269 19.7113473 36.0586135 5.58495232 30.5486308 6.20270629 28.9648442"></polygon>
                    <polygon id="Line-3-Copy-11" fill-rule="nonzero" points="19.9961878 5.28496731 21.3763097 6.27757172 5.95865207 27.7143565 4.57853016 26.721752"></polygon>
                    <polygon id="Line-3-Copy-12" fill-rule="nonzero" points="22.4911755 6.16860543 23.8702932 5.17460624 39.4914373 26.8480607 38.1123196 27.8420599"></polygon>
                    <path d="M22,8 C19.790861,8 18,6.209139 18,4 C18,1.790861 19.790861,0 22,0 C24.209139,0 26,1.790861 26,4 C26,6.209139 24.209139,8 22,8 Z M22,6 C23.1045695,6 24,5.1045695 24,4 C24,2.8954305 23.1045695,2 22,2 C20.8954305,2 20,2.8954305 20,4 C20,5.1045695 20.8954305,6 22,6 Z" id="Combined-Shape"></path>
                    <path d="M22,40 C19.790861,40 18,38.209139 18,36 C18,33.790861 19.790861,32 22,32 C24.209139,32 26,33.790861 26,36 C26,38.209139 24.209139,40 22,40 Z M22,38 C23.1045695,38 24,37.1045695 24,36 C24,34.8954305 23.1045695,34 22,34 C20.8954305,34 20,34.8954305 20,36 C20,37.1045695 20.8954305,38 22,38 Z" id="Combined-Shape"></path>
                    <path d="M40,15 C37.790861,15 36,13.209139 36,11 C36,8.790861 37.790861,7 40,7 C42.209139,7 44,8.790861 44,11 C44,13.209139 42.209139,15 40,15 Z M40,13 C41.1045695,13 42,12.1045695 42,11 C42,9.8954305 41.1045695,9 40,9 C38.8954305,9 38,9.8954305 38,11 C38,12.1045695 38.8954305,13 40,13 Z" id="Combined-Shape"></path>
                    <path d="M40,33 C37.790861,33 36,31.209139 36,29 C36,26.790861 37.790861,25 40,25 C42.209139,25 44,26.790861 44,29 C44,31.209139 42.209139,33 40,33 Z M40,31 C41.1045695,31 42,30.1045695 42,29 C42,27.8954305 41.1045695,27 40,27 C38.8954305,27 38,27.8954305 38,29 C38,30.1045695 38.8954305,31 40,31 Z" id="Combined-Shape"></path>
                    <path d="M4,15 C1.790861,15 0,13.209139 0,11 C0,8.790861 1.790861,7 4,7 C6.209139,7 8,8.790861 8,11 C8,13.209139 6.209139,15 4,15 Z M4,13 C5.1045695,13 6,12.1045695 6,11 C6,9.8954305 5.1045695,9 4,9 C2.8954305,9 2,9.8954305 2,11 C2,12.1045695 2.8954305,13 4,13 Z" id="Combined-Shape"></path>
                    <path d="M4,33 C1.790861,33 0,31.209139 0,29 C0,26.790861 1.790861,25 4,25 C6.209139,25 8,26.790861 8,29 C8,31.209139 6.209139,33 4,33 Z M4,31 C5.1045695,31 6,30.1045695 6,29 C6,27.8954305 5.1045695,27 4,27 C2.8954305,27 2,27.8954305 2,29 C2,30.1045695 2.8954305,31 4,31 Z" id="Combined-Shape"></path>
                </g>
            </g>
        </g>
    </g>
</svg>