<?xml version="1.0" encoding="UTF-8"?>
<svg width="40px" height="40px" viewBox="0 0 40 40" version="1.1" xmlns="http://www.w3.org/2000/svg" xmlns:xlink="http://www.w3.org/1999/xlink">
    <!-- Generator: sketchtool 51.2 (57519) - http://www.bohemiancoding.com/sketch -->
    <title>AB09D893-4FCC-4AAA-B6BC-451AB30F2F96</title>
    <desc>Created with sketchtool.</desc>
    <defs></defs>
    <g id="Page-1" stroke="none" stroke-width="1" fill="none" fill-rule="evenodd">
        <g id="Home" transform="translate(-544.000000, -3045.000000)" fill="#8D89FF" fill-rule="nonzero">
            <g id="section-4" transform="translate(171.000000, 2740.000000)">
                <g id="visual" transform="translate(373.000000, 305.000000)">
                    <path d="M35.800375,19.4005625 C33.4775625,16.2991875 27.104375,10.033625 20,10.033625 C13.400875,10.033625 7.062,15.5788125 4.199625,19.4005625 C3.9335,19.755875 3.9335,20.2441875 4.199625,20.5995 C7.5183125,25.0304375 13.8249375,29.966375 20,29.966375 C26.599125,29.966375 32.938,24.4211875 35.800375,20.5994375 C36.0665625,20.244125 36.0665625,19.755875 35.800375,19.4005625 Z M39,40 L32,40 C31.4477153,40 31,39.5522847 31,39 C31,38.4477153 31.4477153,38 32,38 L38,38 L38,32 C38,31.4477153 38.4477153,31 39,31 C39.5522847,31 40,31.4477153 40,32 L40,39 C40,39.5522847 39.5522847,40 39,40 Z M-2.26683454e-15,39 L-3.55271368e-15,32 C-3.7556198e-15,31.4477153 0.44771525,31 1,31 C1.55228475,31 2,31.4477153 2,32 L2,38 L8,38 C8.55228475,38 9,38.4477153 9,39 C9,39.5522847 8.55228475,40 8,40 L1,40 C0.44771525,40 -2.97131594e-15,39.5522847 -2.26683454e-15,39 Z M1,-3.55271368e-15 L8,-3.55271368e-15 C8.55228475,-3.65416674e-15 9,0.44771525 9,1 C9,1.55228475 8.55228475,2 8,2 L2,2 L2,8 C2,8.55228475 1.55228475,9 1,9 C0.44771525,9 -3.48507831e-15,8.55228475 -3.55271368e-15,8 L-3.1240873e-15,1 C-3.19172268e-15,0.44771525 0.44771525,-3.45330092e-15 1,-3.55271368e-15 Z M40,1 L40,8 C40,8.55228475 39.5522847,9 39,9 C38.4477153,9 38,8.55228475 38,8 L38,2 L32,2 C31.4477153,2 31,1.55228475 31,1 C31,0.44771525 31.4477153,-3.45126062e-15 32,-3.55271368e-15 L39,-3.55271368e-15 C39.5522847,-3.65416674e-15 40,0.44771525 40,1 Z M20,27.966375 C14.811,27.966375 9.6356875,23.985625 6.285125,20.0003125 C7.924125,18.0531875 13.516875,12.033625 20,12.033625 C25.189,12.033625 30.364375,16.014375 33.714875,19.99975 C32.0758125,21.9468125 26.483125,27.966375 20,27.966375 Z" id="Combined-Shape"></path>
                    <path d="M20,14 C16.691625,14 14,16.691625 14,20 C14,23.308375 16.691625,26 20,26 C23.308375,26 26,23.308375 26,20 C26,16.691625 23.308375,14 20,14 Z M20,24 C17.794375,24 16,22.205625 16,20 C16,17.794375 17.794375,16 20,16 C22.205625,16 24,17.794375 24,20 C24,22.205625 22.205625,24 20,24 Z" id="Shape"></path>
                    <circle id="Oval" cx="20" cy="20" r="1.6666875"></circle>
                </g>
            </g>
        </g>
    </g>
</svg>