<?xml version="1.0" encoding="UTF-8"?>
<svg width="50px" height="40px" viewBox="0 0 50 40" version="1.1" xmlns="http://www.w3.org/2000/svg" xmlns:xlink="http://www.w3.org/1999/xlink">
    <!-- Generator: sketchtool 51.2 (57519) - http://www.bohemiancoding.com/sketch -->
    <title>08F7CBF6-25FE-47D0-87FE-EA6DA0595DBA</title>
    <desc>Created with sketchtool.</desc>
    <defs></defs>
    <g id="Page-1" stroke="none" stroke-width="1" fill="none" fill-rule="evenodd">
        <g id="Home" transform="translate(-171.000000, -3822.000000)" fill="#8D89FF" fill-rule="nonzero">
            <g id="section-5" transform="translate(171.000000, 3515.000000)">
                <g id="Group" transform="translate(0.000000, 305.000000)">
                    <g id="collaborate" transform="translate(0.000000, 2.000000)">
                        <path d="M25,9.94823529 C19.4716981,9.94823529 16.0377358,12.7717647 16.0377358,17.3458824 C16.0377358,17.8656471 16.4601415,18.2870588 16.9811321,18.2870588 L33.0188679,18.2870588 C33.5398585,18.2870588 33.9622642,17.8656471 33.9622642,17.3458824 C33.9622642,12.7811765 30.5283019,9.94823529 25,9.94823529 Z M17.990566,16.4047059 C18.6132075,12.1788235 23.4528302,11.8305882 25,11.8305882 C26.5471698,11.8305882 31.3867925,12.1788235 32.009434,16.4047059 L17.990566,16.4047059 Z" id="Shape"></path>
                        <path d="M25,0.0658823529 C22.5251179,0.0658823529 20.5188679,2.06741176 20.5188679,4.53647059 C20.5240566,7.00341176 22.5272406,9.00188235 25,9.00705882 C27.4748821,9.00705882 29.4811321,7.00552941 29.4811321,4.53647059 C29.4811321,2.06741176 27.4748821,0.0658823529 25,0.0658823529 Z M25,7.12470588 C23.567217,7.12470588 22.4056604,5.96588235 22.4056604,4.53647059 C22.4056604,3.10705882 23.567217,1.94823529 25,1.94823529 C26.432783,1.94823529 27.5943396,3.10705882 27.5943396,4.53647059 C27.5943396,5.96588235 26.432783,7.12470588 25,7.12470588 Z" id="Shape"></path>
                        <path d="M8.96226415,31.5952941 C3.43396226,31.5952941 0,34.4188235 0,38.9929412 C0,39.5127059 0.42240566,39.9341176 0.943396226,39.9341176 L16.9811321,39.9341176 C17.5021226,39.9341176 17.9245283,39.5127059 17.9245283,38.9929412 C17.9245283,34.4282353 14.490566,31.5952941 8.96226415,31.5952941 Z M1.95283019,38.0517647 C2.5754717,33.8258824 7.40566038,33.4776471 8.96226415,33.4776471 C10.5188679,33.4776471 15.3490566,33.8258824 15.9716981,38.0517647 L1.95283019,38.0517647 Z" id="Shape"></path>
                        <path d="M8.96226415,21.7129412 C6.48738208,21.7129412 4.48113208,23.7144706 4.48113208,26.1835294 C4.48632075,28.6504706 6.48950472,30.6489412 8.96226415,30.6541176 C11.4371462,30.6541176 13.4433962,28.6525882 13.4433962,26.1835294 C13.4433962,23.7144706 11.4371462,21.7129412 8.96226415,21.7129412 Z M8.96226415,28.7717647 C7.52948113,28.7717647 6.36792453,27.6129412 6.36792453,26.1835294 C6.36792453,24.7541176 7.52948113,23.5952941 8.96226415,23.5952941 C10.3950472,23.5952941 11.5566038,24.7541176 11.5566038,26.1835294 C11.5566038,27.6129412 10.3950472,28.7717647 8.96226415,28.7717647 Z" id="Shape"></path>
                        <path d="M41.0377358,31.5952941 C35.509434,31.5952941 32.0754717,34.4188235 32.0754717,38.9929412 C32.0754717,39.5127059 32.4978774,39.9341176 33.0188679,39.9341176 L49.0566038,39.9341176 C49.5775943,39.9341176 50,39.5127059 50,38.9929412 C50,34.4282353 46.5660377,31.5952941 41.0377358,31.5952941 Z M34.0283019,38.0517647 C34.6509434,33.8258824 39.4811321,33.4776471 41.0377358,33.4776471 C42.5943396,33.4776471 47.4245283,33.8258824 48.0471698,38.0517647 L34.0283019,38.0517647 Z" id="Shape"></path>
                        <path d="M41.0377358,21.7129412 C38.5628538,21.7129412 36.5566038,23.7144706 36.5566038,26.1835294 C36.5617925,28.6504706 38.5649764,30.6489412 41.0377358,30.6541176 C43.5126179,30.6541176 45.5188679,28.6525882 45.5188679,26.1835294 C45.5188679,23.7144706 43.5126179,21.7129412 41.0377358,21.7129412 Z M41.0377358,28.7717647 C39.6049528,28.7717647 38.4433962,27.6129412 38.4433962,26.1835294 C38.4433962,24.7541176 39.6049528,23.5952941 41.0377358,23.5952941 C42.4705189,23.5952941 43.6320755,24.7541176 43.6320755,26.1835294 C43.6320755,27.6129412 42.4705189,28.7717647 41.0377358,28.7717647 Z" id="Shape"></path>
                        <path d="M29.8773585,29.9670588 L25.9433962,26.0235294 L25.9433962,20.4705882 C25.9433962,19.9508235 25.5209906,19.5294118 25,19.5294118 C24.4790094,19.5294118 24.0566038,19.9508235 24.0566038,20.4705882 L24.0566038,26.0235294 L20.1226415,29.9482353 C19.7501179,30.3147059 19.7458726,30.9130588 20.1132075,31.2847059 C20.4805425,31.6563529 21.0803066,31.6605882 21.4528302,31.2941176 L25,27.7458824 L28.5471698,31.2941176 C28.9429245,31.6322353 29.5384434,31.5862353 29.8773585,31.1914118 C30.1798349,30.8390588 30.1798349,30.3194118 29.8773585,29.9670588 Z" id="Shape"></path>
                    </g>
                </g>
            </g>
        </g>
    </g>
</svg>