<?xml version="1.0" encoding="UTF-8"?>
<svg width="38px" height="32px" viewBox="0 0 38 32" version="1.1" xmlns="http://www.w3.org/2000/svg" xmlns:xlink="http://www.w3.org/1999/xlink">
    <!-- Generator: sketchtool 51.2 (57519) - http://www.bohemiancoding.com/sketch -->
    <title>4D139666-A71E-4712-A71D-5A814C276ED4</title>
    <desc>Created with sketchtool.</desc>
    <defs></defs>
    <g id="Page-1" stroke="none" stroke-width="1" fill="none" fill-rule="evenodd">
        <g id="Home_1" transform="translate(-171.000000, -6333.000000)" fill="#8D89FF" fill-rule="nonzero">
            <g id="Group-2" transform="translate(171.000000, 6326.000000)">
                <g id="quote" transform="translate(0.000000, 7.000000)">
                    <path d="M35.1967357,0.468625 L23.4792793,0.468625 C22.1049189,0.468625 20.9867868,1.590125 20.9867868,2.968625 L20.9867868,13.47 C20.9867868,14.8485 22.1049189,15.97 23.4792793,15.97 L28.434479,15.97 C28.0856547,21.44175 25.4124565,22.348875 23.3677402,22.5355 C22.7257988,22.594125 22.2344039,23.133875 22.2344039,23.780375 L22.2344039,30.281125 C22.2344039,30.62475 22.375479,30.953375 22.624479,31.1895 C22.8564054,31.4095 23.1631066,31.531125 23.4805255,31.531125 C23.5038303,31.531125 23.5271351,31.5305 23.5505646,31.52925 C28.2162613,31.266 31.7891246,29.641625 34.1699535,26.701375 C36.5051697,23.817375 37.6892282,19.635875 37.6892282,14.273125 L37.6892282,2.968625 C37.6892282,1.590125 36.5710961,0.468625 35.1967357,0.468625 Z M35.1967357,14.273125 C35.1967357,19.047125 34.2003619,22.69825 32.2351562,25.12525 C30.5091051,27.25675 28.0447778,28.503375 24.7267718,28.915625 L24.7267718,24.85425 C27.7941577,24.195375 30.964982,21.800875 30.964982,14.72 C30.964982,14.029625 30.4070375,13.47 29.7187357,13.47 L23.4792793,13.47 L23.4792793,2.968625 L35.1967357,2.968625 L35.1967357,14.273125 Z" id="Shape"></path>
                    <path d="M14.7544339,0.468625 L3.03697748,0.468625 C1.66261712,0.468625 0.544484985,1.590125 0.544484985,2.968625 L0.544484985,13.47 C0.544484985,14.8485 1.66261712,15.97 3.03697748,15.97 L7.99205255,15.97 C7.64322823,21.44175 4.97003003,22.348875 2.92531381,22.5355 C2.28337237,22.594125 1.79197748,23.133875 1.79197748,23.780375 L1.79197748,30.281125 C1.79197748,30.62475 1.93305255,30.953375 2.18205255,31.1895 C2.41397898,31.4095 2.72068018,31.531125 3.0380991,31.531125 C3.0614039,31.531125 3.08470871,31.5305 3.10826276,31.52925 C7.77395946,31.266 11.3468228,29.641625 13.7276517,26.701375 C16.0628679,23.817375 17.2469264,19.635875 17.2469264,14.273125 L17.2469264,2.968625 C17.2469264,1.590125 16.1287943,0.468625 14.7544339,0.468625 Z M14.7543093,14.273125 C14.7543093,19.047125 13.7579354,22.69825 11.7927297,25.12525 C10.0666787,27.25675 7.60235135,28.503375 4.28434535,28.915625 L4.28434535,24.85425 C7.35173123,24.195375 10.5225556,21.800875 10.5225556,14.72 C10.5225556,14.029625 9.96461111,13.47 9.27630931,13.47 L3.03685285,13.47 L3.03685285,2.968625 L14.7543093,2.968625 L14.7543093,14.273125 Z" id="Shape"></path>
                </g>
            </g>
        </g>
    </g>
</svg>