<?xml version="1.0" encoding="UTF-8"?>
<svg width="39px" height="40px" viewBox="0 0 39 40" version="1.1" xmlns="http://www.w3.org/2000/svg" xmlns:xlink="http://www.w3.org/1999/xlink">
    <!-- Generator: sketchtool 51.1 (57501) - http://www.bohemiancoding.com/sketch -->
    <title>4D20C4F0-4D9A-4A11-A0F3-2D669E1DF541</title>
    <desc>Created with sketchtool.</desc>
    <defs></defs>
    <g id="Page-1" stroke="none" stroke-width="1" fill="none" fill-rule="evenodd">
        <g id="Home" transform="translate(-731.000000, -1318.000000)" fill="#8D89FF" fill-rule="nonzero">
            <g id="section-2" transform="translate(149.000000, 1013.000000)">
                <path d="M583.801266,333.504414 C583.586539,332.954912 583.851886,332.332989 584.393935,332.11531 C584.935984,331.897631 585.549472,332.166626 585.764199,332.716127 C588.136954,338.788176 593.940053,342.85963 600.492169,342.85963 C604.021571,342.85963 607.372432,341.687158 610.114537,339.557004 C610.577317,339.197502 611.239955,339.286383 611.594581,339.755526 C611.949207,340.224668 611.861532,340.896417 611.398752,341.255919 C608.291247,343.669926 604.489972,345 600.492169,345 C593.066873,345 586.490318,340.385888 583.801266,333.504414 Z M616.002767,335.963953 C615.708912,336.474438 615.062478,336.646776 614.558917,336.34888 C614.055356,336.050985 613.885355,335.395664 614.17921,334.885179 C615.579052,332.453374 616.327223,329.686774 616.327223,326.806859 C616.327223,320.589009 612.809037,315.013619 607.38556,312.350623 C606.860839,312.092978 606.641498,311.452897 606.895648,310.920961 C607.149798,310.389026 607.781199,310.166669 608.30592,310.424314 C614.451057,313.441654 618.438563,319.760792 618.438563,326.806859 C618.438563,330.068439 617.589828,333.206911 616.002767,335.963953 Z M599.98054,310.762308 C591.471871,311.036103 584.657116,318.114703 584.657116,326.806859 C584.657116,327.397906 584.184476,327.877044 583.601445,327.877044 C583.018415,327.877044 582.545775,327.397906 582.545775,326.806859 C582.545775,316.966079 590.252975,308.950163 599.881991,308.624036 L597.497705,306.492321 C597.128211,306.1603 597.118635,305.611697 597.476317,305.266983 C597.833999,304.922269 598.423491,304.911979 598.792986,305.244 L603.702234,309.655696 L598.949942,314.236034 C598.59226,314.580748 598.002768,314.591038 597.633273,314.259016 C597.263779,313.926995 597.254203,313.378392 597.611885,313.033678 L599.98054,310.762308 Z M619.830552,332.944826 C620.28762,332.750269 620.78887,332.97344 620.950125,333.443292 C621.111379,333.913144 620.871574,334.451755 620.414506,334.646312 L614.341414,337.23114 L612.198623,330.988366 C612.037369,330.518513 612.277174,329.979903 612.734242,329.785345 C613.191311,329.590788 613.692561,329.813959 613.853815,330.283811 L615.40531,334.841589 L619.830552,332.944826 Z M583.725679,338.400854 C583.589236,338.878502 583.100353,339.1276 582.633728,338.95723 C582.167103,338.786861 581.899438,338.261539 582.035882,337.783891 L583.849014,331.437528 L590.049062,333.700971 C590.515687,333.871341 590.783352,334.396663 590.646909,334.874311 C590.510466,335.351959 590.021583,335.601057 589.554958,335.430688 L585.036512,333.768123 L583.725679,338.400854 Z" id="loop"></path>
            </g>
        </g>
    </g>
</svg>