<?xml version="1.0" encoding="UTF-8"?>
<svg width="40px" height="40px" viewBox="0 0 40 40" version="1.1" xmlns="http://www.w3.org/2000/svg" xmlns:xlink="http://www.w3.org/1999/xlink">
    <!-- Generator: sketchtool 51.2 (57519) - http://www.bohemiancoding.com/sketch -->
    <title>BD980106-6135-432E-9D55-3698BF88314F</title>
    <desc>Created with sketchtool.</desc>
    <defs></defs>
    <g id="Page-1" stroke="none" stroke-width="1" fill="none" fill-rule="evenodd">
        <g id="Home" transform="translate(-454.000000, -3822.000000)" fill="#8D89FF" fill-rule="nonzero">
            <g id="section-5" transform="translate(171.000000, 3515.000000)">
                <g id="Group" transform="translate(0.000000, 305.000000)">
                    <g id="deploy" transform="translate(283.000000, 2.000000)">
                        <path d="M39.256188,0.0105483029 C39.1722193,-0.00229765013 39.086893,-0.00229765013 39.0029243,0.0105483029 C31.2480418,1.55383812 24.1130026,5.32898172 18.4744648,10.8721671 L11.1052742,11.2481462 C10.8977546,11.2575457 10.7010966,11.3439164 10.5538381,11.4904439 L2.98412533,19.0601567 C2.65650131,19.3850653 2.65430809,19.9141514 2.97921671,20.2417755 C3.13733681,20.4011488 3.35279373,20.490235 3.57733681,20.4888773 L3.63582245,20.4888773 L12.1663708,19.9040209 C11.8321671,20.6058486 11.5146736,21.3243864 11.2222454,22.0763446 C11.1009922,22.3844386 11.1730548,22.7350392 11.4060574,22.9703394 L17.0206789,28.5849608 C17.2559791,28.8179634 17.6065796,28.8900261 17.9146736,28.7687728 C18.6916971,28.4679896 19.4269452,28.1337859 20.1538381,27.7912272 L19.5689817,36.4136815 C19.5424543,36.8743603 19.8944125,37.2693473 20.3550914,37.2958747 C20.590705,37.3094517 20.821201,37.2226632 20.9893473,37.0570235 L28.5590601,29.4873107 C28.7055875,29.3400522 28.7919582,29.1433943 28.8013577,28.9358747 L29.1856919,21.4162924 C34.6820888,15.786423 38.423812,8.68052219 39.9554047,0.963028721 C40.0253786,0.50694517 39.7122715,0.0805221932 39.256188,0.0105483029 Z M5.74966057,18.634047 L11.5146736,12.8690339 L16.8702872,12.5933159 C15.4106527,14.3037076 14.1310705,16.16 13.0520104,18.1327415 L5.74966057,18.634047 Z M27.1554047,28.509765 L21.3903916,34.2747781 L21.8916971,26.8721671 C23.8651697,25.7878851 25.7215666,24.5027676 27.4311227,23.0371802 L27.1554047,28.509765 Z M17.8144125,26.9891384 L12.9768146,22.1515405 C19.0676762,7.27112272 33.7726371,2.88469974 38.0420888,1.90715405 C37.0812533,6.19331593 32.7198956,20.8899217 17.8144125,26.9891384 Z" id="Shape"></path>
                        <path d="M9.23373368,23.3128982 C8.90840731,22.9829765 8.37723238,22.9792167 8.0473107,23.3045431 L0.293785901,31.0246475 C-0.0575456919,31.3238642 -0.0997389034,31.8511749 0.199373368,32.2025065 C0.367937337,32.4004178 0.619007833,32.5086162 0.878642298,32.4951436 C1.10067885,32.4963969 1.31415144,32.4091906 1.47185379,32.252846 L9.22537859,24.4993211 C9.55530026,24.1740992 9.55906005,23.6428198 9.23373368,23.3128982 Z" id="Shape"></path>
                        <path d="M9.4229765,30.5542559 C9.42120104,30.552376 9.41942559,30.5503916 9.41754569,30.5485117 C9.09169713,30.2245431 8.56532637,30.2245431 8.23947781,30.5485117 L0.477597911,38.343812 C0.0805221932,38.5789034 -0.0506527415,39.0913838 0.184438642,39.4884595 C0.419530026,39.8855352 0.932010444,40.0167102 1.32908616,39.7816188 C1.44992167,39.7100783 1.55070496,39.609295 1.62224543,39.4884595 L9.37577023,31.7349347 C9.71488251,31.4218277 9.73597911,30.8932637 9.4229765,30.5542559 Z" id="Shape"></path>
                        <path d="M16.5703394,30.7405744 C16.2575457,30.4726893 15.7962402,30.4726893 15.4834465,30.7405744 L15.5085117,30.7405744 L7.75498695,38.4940992 C7.40449086,38.7942559 7.36365535,39.321671 7.66381201,39.6721671 C7.96396867,40.0226632 8.49138381,40.0634987 8.8418799,39.763342 C8.87456919,39.7353525 8.90506527,39.7048564 8.93305483,39.6721671 L16.6615144,31.9186423 C16.9615666,31.5682507 16.9207311,31.0407311 16.5703394,30.7405744 Z" id="Shape"></path>
                        <path d="M28.9920627,7.25441253 C26.9432898,7.25483029 25.2827154,8.91603133 25.2831332,10.9648042 C25.283342,11.9486162 25.6742559,12.8920104 26.3700261,13.5875718 C27.0643342,14.2855352 28.0089817,14.676658 28.9935248,14.6737337 C31.0422977,14.6733159 32.7028721,13.0121149 32.7024543,10.963342 C32.7020366,8.91456919 31.0408355,7.25399478 28.9920627,7.25441253 Z M30.4389556,12.4429243 C29.6277807,13.2336292 28.3342037,13.2336292 27.5230287,12.4429243 C26.7273107,11.646893 26.7273107,10.3564491 27.5230287,9.56041775 L27.5230287,9.52699739 C28.3282507,8.72177546 29.6337337,8.72177546 30.4389556,9.52699739 C31.2441775,10.3322193 31.2441775,11.6377023 30.4389556,12.4429243 Z" id="Shape"></path>
                    </g>
                </g>
            </g>
        </g>
    </g>
</svg>