<?xml version="1.0" encoding="UTF-8"?>
<svg width="48px" height="40px" viewBox="0 0 48 40" version="1.1" xmlns="http://www.w3.org/2000/svg" xmlns:xlink="http://www.w3.org/1999/xlink">
    <!-- Generator: sketchtool 51.2 (57519) - http://www.bohemiancoding.com/sketch -->
    <title>A199CF94-0D34-4CA8-8B1A-BA07CFF87F7E</title>
    <desc>Created with sketchtool.</desc>
    <defs></defs>
    <g id="Page-1" stroke="none" stroke-width="1" fill="none" fill-rule="evenodd">
        <g id="Home" transform="translate(-731.000000, -3820.000000)" fill="#8D89FF" fill-rule="nonzero">
            <g id="section-5" transform="translate(171.000000, 3515.000000)">
                <g id="Group" transform="translate(0.000000, 305.000000)">
                    <g id="monitor" transform="translate(560.000000, 0.000000)">
                        <path d="M41.0909091,40 L46.8863636,40 C47.4386484,40 47.8863636,39.5522847 47.8863636,39 L47.8863636,14.3333333 C47.8863636,13.7810486 47.4386484,13.3333333 46.8863636,13.3333333 L41.0909091,13.3333333 C40.5386243,13.3333333 40.0909091,13.7810486 40.0909091,14.3333333 L40.0909091,39 C40.0909091,39.5522847 40.5386243,40 41.0909091,40 Z M42.7613636,15 L45.2159091,15 C45.7681938,15 46.2159091,15.4477153 46.2159091,16 L46.2159091,37.3333333 C46.2159091,37.8856181 45.7681938,38.3333333 45.2159091,38.3333333 L42.7613636,38.3333333 C42.2090789,38.3333333 41.7613636,37.8856181 41.7613636,37.3333333 L41.7613636,16 C41.7613636,15.4477153 42.2090789,15 42.7613636,15 Z" id="Shape"></path>
                        <path d="M1,40 L6.79545455,40 C7.3477393,40 7.79545455,39.5522847 7.79545455,39 L7.79545455,33.2222222 C7.79545455,32.6699375 7.3477393,32.2222222 6.79545455,32.2222222 L1,32.2222222 C0.44771525,32.2222222 -6.76353751e-17,32.6699375 0,33.2222222 L0,39 C-4.22892021e-16,39.5522847 0.44771525,40 1,40 Z M2.67045455,33.8888889 L5.125,33.8888889 C5.67728475,33.8888889 6.125,34.3366041 6.125,34.8888889 L6.125,37.3333333 C6.125,37.8856181 5.67728475,38.3333333 5.125,38.3333333 L2.67045455,38.3333333 C2.1181698,38.3333333 1.67045455,37.8856181 1.67045455,37.3333333 L1.67045455,34.8888889 C1.67045455,34.3366041 2.1181698,33.8888889 2.67045455,33.8888889 Z" id="Shape-Copy"></path>
                        <path d="M14.3636364,40 L20.1590909,40 C20.7113757,40 21.1590909,39.5522847 21.1590909,39 L21.1590909,18.7777778 C21.1590909,18.225493 20.7113757,17.7777778 20.1590909,17.7777778 L14.3636364,17.7777778 C13.8113516,17.7777778 13.3636364,18.225493 13.3636364,18.7777778 L13.3636364,39 C13.3636364,39.5522847 13.8113516,40 14.3636364,40 Z M16.0340909,19.4444444 L18.4886364,19.4444444 C19.0409211,19.4444444 19.4886364,19.8921597 19.4886364,20.4444444 L19.4886364,37.3333333 C19.4886364,37.8856181 19.0409211,38.3333333 18.4886364,38.3333333 L16.0340909,38.3333333 C15.4818062,38.3333333 15.0340909,37.8856181 15.0340909,37.3333333 L15.0340909,20.4444444 C15.0340909,19.8921597 15.4818062,19.4444444 16.0340909,19.4444444 Z" id="Shape-Copy-2"></path>
                        <path d="M27.7272727,40 L33.5227273,40 C34.075012,40 34.5227273,39.5522847 34.5227273,39 L34.5227273,26.5555556 C34.5227273,26.0032708 34.075012,25.5555556 33.5227273,25.5555556 L27.7272727,25.5555556 C27.174988,25.5555556 26.7272727,26.0032708 26.7272727,26.5555556 L26.7272727,39 C26.7272727,39.5522847 27.174988,40 27.7272727,40 Z M29.3977273,27.2222222 L31.8522727,27.2222222 C32.4045575,27.2222222 32.8522727,27.6699375 32.8522727,28.2222222 L32.8522727,37.3333333 C32.8522727,37.8856181 32.4045575,38.3333333 31.8522727,38.3333333 L29.3977273,38.3333333 C28.8454425,38.3333333 28.3977273,37.8856181 28.3977273,37.3333333 L28.3977273,28.2222222 C28.3977273,27.6699375 28.8454425,27.2222222 29.3977273,27.2222222 Z" id="Shape-Copy-3"></path>
                        <path d="M3.93696221,20.7729469 C6.10765058,20.7729469 7.87373737,19.0436312 7.87373737,16.9175254 C7.87373737,16.1586599 7.64777404,15.4509045 7.2597269,14.853796 L15.1674149,7.10952093 C15.7772166,7.48954905 16.4998129,7.71075124 17.2745978,7.71075124 C18.0496633,7.71075124 18.7724467,7.48936586 19.3822484,7.10915455 L27.290217,14.8537044 C26.9020763,15.4509045 26.676113,16.1586599 26.676113,16.9175254 C26.676113,19.0433564 28.4421998,20.7729469 30.6126076,20.7729469 C32.7835765,20.7729469 34.5493827,19.0436312 34.5493827,16.9175254 C34.5493827,16.1580188 34.3230453,15.4497138 33.9343434,14.8521473 L41.8417508,7.10814701 C42.4520202,7.48899948 43.1753648,7.71075124 43.9510849,7.71075124 C46.1210251,7.71075124 47.8863636,5.98143555 47.8863636,3.85532982 C47.8863636,1.7293157 46.1210251,0 43.9510849,0 C41.7803966,0 40.0143098,1.7293157 40.0143098,3.85532982 C40.0143098,4.61382894 40.2399925,5.32130958 40.6277591,5.91832651 L32.7194164,13.6632427 C32.1097082,13.2833062 31.3872054,13.0621956 30.612514,13.0621956 C29.8372615,13.0621956 29.1142911,13.2837642 28.5043023,13.6642503 L20.5967078,5.91997523 C20.9851291,5.32259191 21.2112795,4.6145617 21.2112795,3.85542142 C21.2112795,1.72959048 19.4454733,9.15951112e-05 17.2745043,9.15951112e-05 C15.1036289,9.15951112e-05 13.3378227,1.72940729 13.3378227,3.85542142 C13.3378227,4.61483649 13.5640666,5.32304989 13.9526749,5.9205248 L6.04554807,13.6642503 C5.43546577,13.2836726 4.7124018,13.0621956 3.93705574,13.0621956 C1.76580621,13.0621956 0,14.7916945 0,16.9175254 C0,19.0433564 1.76580621,20.7729469 3.93696221,20.7729469 Z M43.9509914,1.68223581 C45.1742424,1.68223581 46.1686308,2.65717418 46.1686308,3.85569621 C46.1686308,5.05421823 45.1739618,6.029065 43.9509914,6.029065 C42.7274598,6.029065 41.7316685,5.05412664 41.7316685,3.85560461 C41.7316685,2.65708258 42.7277404,1.68223581 43.9509914,1.68223581 Z M30.612514,14.7441566 C31.8367003,14.7441566 32.8318369,15.719095 32.8318369,16.917617 C32.8318369,18.1161391 31.8365133,19.0910774 30.612514,19.0910774 C29.389263,19.0910774 28.3931912,18.1161391 28.3931912,16.917617 C28.3931912,15.719095 29.3894501,14.7441566 30.612514,14.7441566 Z M17.2745043,1.68223581 C18.498223,1.68223581 19.4938272,2.65717418 19.4938272,3.85569621 C19.4938272,5.05421823 18.4980359,6.0291566 17.2745043,6.0291566 C16.0507856,6.0291566 15.0551814,5.05421823 15.0551814,3.85569621 C15.0551814,2.65717418 16.0507856,1.68223581 17.2745043,1.68223581 Z M3.93696221,14.7441566 C5.16068088,14.7441566 6.15628507,15.719095 6.15628507,16.917617 C6.15628507,18.1161391 5.16049383,19.0909858 3.93696221,19.0909858 C2.71324355,19.0909858 1.71717172,18.1160475 1.71717172,16.9175254 C1.71717172,15.7190034 2.71324355,14.7441566 3.93696221,14.7441566 Z" id="Shape"></path>
                    </g>
                </g>
            </g>
        </g>
    </g>
</svg>