<?xml version="1.0" encoding="UTF-8"?>
<svg width="40px" height="40px" viewBox="0 0 40 40" version="1.1" xmlns="http://www.w3.org/2000/svg" xmlns:xlink="http://www.w3.org/1999/xlink">
    <!-- Generator: sketchtool 51.2 (57519) - http://www.bohemiancoding.com/sketch -->
    <title>C13D0027-4487-40A3-BF6D-B4C18C9DC43F</title>
    <desc>Created with sketchtool.</desc>
    <defs></defs>
    <g id="Page-1" stroke="none" stroke-width="1" fill="none" fill-rule="evenodd">
        <g id="Home" transform="translate(-1011.000000, -3820.000000)" fill="#8D89FF" fill-rule="nonzero">
            <g id="section-5" transform="translate(171.000000, 3515.000000)">
                <g id="Group" transform="translate(0.000000, 305.000000)">
                    <g id="scale" transform="translate(840.000000, 0.000000)">
                        <path d="M38.9339663,2.3441902 L25.3084863,2.3441902 L25.3084863,0.937676058 C25.3084863,0.441789661 24.9289968,-3.8287908e-08 24.4320462,-3.8287908e-08 L19.7607112,-3.8287908e-08 C19.2637607,-3.8287908e-08 18.8933067,0.441789661 18.8933067,0.937676058 L18.8933067,2.3441902 L6.51472073,2.3441902 L6.51472073,0.937676058 C6.50568526,0.423757428 6.09005391,0.0180321943 5.57503245,-3.8287908e-08 L0.894661996,-3.8287908e-08 C0.397711465,-3.8287908e-08 0.000151040267,0.441789661 0.000151040267,0.937676058 L0.000151040267,5.60802431 C-0.00888442393,6.09489459 0.388676001,6.4916037 0.867555603,6.4916037 C0.873579246,6.4916037 1.34041156,6.4916037 2.26805255,6.4916037 L2.26805255,18.9338442 L0.90369746,18.9338442 C0.406746929,18.9338442 0.00918650446,19.3395694 0.00918650446,19.8354558 C0.00918650446,19.8354558 0.00918650446,21.395244 0.00918650446,24.5148202 C0.000151040267,25.0107066 0.397711465,25.4254479 0.90369746,25.4344641 L2.26805255,25.4344641 L2.26805255,37.8358761 C2.26805255,39.2566842 3.07219968,39.9188549 4.07514539,39.9188549 L38.9339663,39.9188549 C39.4309168,39.9188549 39.8284772,39.4770652 39.8284772,38.9811788 L39.8284772,3.2818663 C39.8375127,2.76794767 39.4399523,2.35320632 38.9339663,2.3441902 Z M23.5013934,1.80322322 L23.5013934,4.68838044 L20.7003995,4.68838044 L20.7003995,1.80322322 L23.5013934,1.80322322 Z M6.51472073,5.60802431 L6.51472073,4.14741346 L18.8933067,4.14741346 L18.8933067,5.60802431 C18.8752357,6.07686235 19.2456898,6.47357147 19.7245694,6.4916037 C19.730593,6.4916037 20.2064608,6.4916037 21.1521727,6.4916037 L21.1521727,18.9338442 L19.7607112,18.9338442 C19.2637607,18.9338442 18.8933067,19.3395694 18.8933067,19.844472 L18.8933067,21.2780344 L6.51472073,21.2780344 L6.51472073,19.844472 C6.4966498,19.3395694 6.08101844,18.9338442 5.57503245,18.9338442 L4.07514539,18.9338442 L4.07514539,6.4916037 L5.57503245,6.4916037 C6.08101844,6.4916037 6.51472073,6.1039107 6.51472073,5.60802431 Z M23.5013934,20.7370675 L23.5013934,23.6222247 L20.7003995,23.6222247 L20.7003995,20.7370675 L23.5013934,20.7370675 Z M1.81627934,4.68838044 L1.81627934,1.80322322 L4.70762789,1.80322322 L4.70762789,4.68838044 L1.81627934,4.68838044 Z M1.81627934,23.6222247 L1.81627934,20.7370675 L4.70762789,20.7370675 L4.70762789,23.6222247 L1.81627934,23.6222247 Z M37.0213844,38.1066155 L5.07514539,38.1066155 C4.52286064,38.1066155 4.07514539,37.6589003 4.07514539,37.1066155 L4.07514539,25.4254479 L5.57503245,25.4254479 C6.08101844,25.4254479 6.4966498,25.0197227 6.51472073,24.5058041 L6.51472073,23.0812577 L18.8933067,23.0812577 L18.8933067,24.5058041 C18.8933067,25.0016905 19.2637607,25.4254479 19.7607112,25.4254479 L24.4320462,25.4254479 C24.9289968,25.4164318 25.3175217,25.0107066 25.3084863,24.5148202 L25.3084863,19.844472 C25.3265572,19.3576017 24.9380322,18.9518764 24.4501172,18.9428603 C24.4440935,18.9428603 23.947143,18.9428603 22.9592656,18.9428603 L22.9592656,6.50061982 L24.4320462,6.50061982 C24.9109258,6.50963594 25.2994508,6.12194293 25.3084863,5.64408877 C25.3084863,5.63807803 25.3084863,5.13918626 25.3084863,4.14741346 L37.0213844,4.14741346 C37.5736691,4.14741346 38.0213844,4.59512871 38.0213844,5.14741346 L38.0213844,37.1066155 C38.0213844,37.6589003 37.5736691,38.1066155 37.0213844,38.1066155 Z" id="Shape" transform="translate(19.914314, 19.959427) scale(1, -1) translate(-19.914314, -19.959427) "></path>
                        <path d="M31.9225933,9.43436071 L27.6144299,13.7065479 C27.2225445,14.0957063 26.5893834,14.0934955 26.200225,13.7016101 C25.8110666,13.3097246 25.8132774,12.6765635 26.2051629,12.2874051 L30.5286723,8 L27.9187453,8 C27.3664606,8 26.9187453,7.55228475 26.9187453,7 C26.9187453,6.44771525 27.3664606,6 27.9187453,6 L33.9225933,6 L33.9225933,11.7548023 C33.9225933,12.3070871 33.4748781,12.7548023 32.9225933,12.7548023 C32.3703086,12.7548023 31.9225933,12.3070871 31.9225933,11.7548023 L31.9225933,9.43436071 Z" id="Combined-Shape"></path>
                    </g>
                </g>
            </g>
        </g>
    </g>
</svg>