<?xml version="1.0" encoding="UTF-8"?>
<svg width="40px" height="40px" viewBox="0 0 40 40" version="1.1" xmlns="http://www.w3.org/2000/svg" xmlns:xlink="http://www.w3.org/1999/xlink">
    <!-- Generator: sketchtool 51.1 (57501) - http://www.bohemiancoding.com/sketch -->
    <title>6A25A570-D6AA-4BFE-A81E-B4D69E57CC45</title>
    <desc>Created with sketchtool.</desc>
    <defs></defs>
    <g id="Page-1" stroke="none" stroke-width="1" fill="none" fill-rule="evenodd">
        <g id="Home" transform="translate(-1013.000000, -1320.000000)" fill="#8D89FF" fill-rule="nonzero">
            <g id="section-2" transform="translate(149.000000, 1013.000000)">
                <g id="api" transform="translate(864.000000, 307.000000)">
                    <path d="M33.6198639,6.3148688 C33.2019048,5.89504373 32.5279456,5.89504373 32.1099864,6.3148688 L28.8920816,9.5516035 C28.0143673,8.9638484 26.9903673,8.64897959 25.9141224,8.64897959 C24.4773878,8.64897959 23.1242449,9.21049563 22.1054694,10.2338192 L19.0543673,13.2985423 C18.6364082,13.7183673 18.6364082,14.3953353 19.0543673,14.8151603 L25.1617959,20.9498542 C25.8148571,21.5428571 26.4679184,21.1492711 26.6716735,20.9498542 L29.7227755,17.8851312 C31.5617959,16.0379009 31.7916735,13.1673469 30.4019592,11.0682216 L33.6198639,7.83148688 C33.6808423,7.77023628 34.1738805,7.3321227 34.217066,7.26152236 C34.469883,6.84821247 33.9768448,6.67344327 33.6198639,6.3148688 Z M28.212898,16.3685131 L25.9141224,18.677551 L21.3165714,14.0594752 L23.6153469,11.7504373 C24.2318367,11.1311953 25.0468571,10.7953353 25.9141224,10.7953353 C26.7813878,10.7953353 27.6016327,11.1364431 28.212898,11.7504373 C29.482449,13.0204082 29.482449,15.0932945 28.212898,16.3685131 Z" id="Shape"></path>
                    <path d="M20.6739592,20.9708455 L18.709551,22.9387755 L17.0742857,21.2909621 L19.0334694,19.3230321 C19.4514286,18.903207 19.4514286,18.2262391 19.0334694,17.806414 C18.6155102,17.3865889 17.941551,17.3865889 17.5235918,17.806414 L15.5644082,19.774344 L14.8382041,19.044898 C14.6396735,18.845481 13.9970612,18.4571429 13.3283265,19.044898 L10.2772245,22.109621 C8.43820408,23.9568513 8.20832653,26.8274052 9.59804082,28.9265306 L6.38013605,32.1685131 C6.27011932,32.279021 5.80844454,32.6665048 5.75634582,32.8032664 C5.61051883,33.1860689 6.07219361,33.375814 6.38013605,33.6851312 C6.79809524,34.1049563 7.47205442,34.1049563 7.89001361,33.6851312 L11.1079184,30.4483965 C11.9856327,31.0361516 13.0096327,31.3510204 14.0858776,31.3510204 C15.5226122,31.3510204 16.8757551,30.7895044 17.8945306,29.7661808 L20.9456327,26.7014577 C21.3635918,26.2816327 21.3635918,25.6046647 20.9456327,25.1848397 L20.2194286,24.4553936 L22.1786122,22.4874636 C22.5965714,22.0676385 22.5965714,21.3906706 22.1786122,20.9708455 C21.7658776,20.5510204 21.0866939,20.5510204 20.6739592,20.9708455 Z M16.3846531,28.2495627 C15.7681633,28.8688047 14.9531429,29.2046647 14.0858776,29.2046647 C13.2186122,29.2046647 12.3983673,28.8635569 11.787102,28.2495627 C10.517551,26.974344 10.517551,24.9014577 11.787102,23.6314869 L14.0858776,21.322449 L18.6834286,25.9405248 L16.3846531,28.2495627 Z" id="Shape"></path>
                    <path d="M34.1643021,5.88006541 C34.5542169,6.27119818 34.5532296,6.90436239 34.1620968,7.29427725 C33.7709641,7.68419211 33.1377999,7.68320481 32.747885,7.29207204 C32.6506412,7.19452448 32.5522877,7.09808835 32.4528453,7.00278419 C29.1235169,3.81200333 24.7055343,2 20,2 C10.0588745,2 2,10.0588745 2,20 C2,20.5522847 1.55228475,21 1,21 C0.44771525,21 0,20.5522847 0,20 C0,8.954305 8.954305,0 20,0 C25.2264667,0 30.1386584,2.01469961 33.8366955,5.55884558 C33.9471146,5.66466973 34.0563245,5.77175056 34.1643021,5.88006541 Z M5.83807696,34.1223206 C5.44809659,33.7312532 5.44897786,33.0980888 5.84004533,32.7081084 C6.23111279,32.3181281 6.86427716,32.3190094 7.25425752,32.7100768 C10.6102393,36.0754137 15.151416,38 20,38 C29.9411255,38 38,29.9411255 38,20 C38,19.4477153 38.4477153,19 39,19 C39.5522847,19 40,19.4477153 40,20 C40,31.045695 31.045695,40 20,40 C14.6145505,40 9.56556665,37.860201 5.83807696,34.1223206 Z" id="Oval-3"></path>
                </g>
            </g>
        </g>
    </g>
</svg>