<?xml version="1.0" encoding="UTF-8"?>
<svg width="40px" height="40px" viewBox="0 0 40 40" version="1.1" xmlns="http://www.w3.org/2000/svg" xmlns:xlink="http://www.w3.org/1999/xlink">
    <!-- Generator: sketchtool 51.1 (57501) - http://www.bohemiancoding.com/sketch -->
    <title>97EACDF0-5673-4774-A873-DB8972622B02</title>
    <desc>Created with sketchtool.</desc>
    <defs></defs>
    <g id="Page-1" stroke="none" stroke-width="1" fill="none" fill-rule="evenodd">
        <g id="Home" transform="translate(-451.000000, -1318.000000)" fill="#8D89FF" fill-rule="nonzero">
            <g id="section-2" transform="translate(149.000000, 1013.000000)">
                <path d="M340.062038,316.079939 C340.186207,315.966857 340.310221,315.848306 340.434307,315.72401 C340.800009,315.3578 341.360165,315.3578 341.725785,315.724036 C342.091405,316.090379 342.091405,316.651479 341.725787,317.017712 C338.750691,319.997889 336.357345,320.261893 330.207621,318.966907 C331.120362,324.166833 330.26777,328.491177 327.794333,330.905241 C325.517748,333.18566 322.465059,333.528883 317.05941,332.447575 C318.029654,337.914264 317.121611,341.663327 314.132062,344.657912 C313.908218,344.882132 313.649295,345 313.418995,345 C313.157598,345 312.959454,344.911785 312.773258,344.725275 C312.407663,344.358957 312.407663,343.797858 312.773283,343.431622 C313.033945,343.170521 313.27619,342.90136 313.5013,342.623033 L304.377957,333.484401 C304.077696,333.725439 303.785016,333.988809 303.498469,334.275839 C303.369148,334.405529 303.162225,334.483252 302.91993,334.483252 C302.658533,334.483252 302.460389,334.395037 302.274192,334.208527 C301.908598,333.842209 301.908598,333.28111 302.274218,332.914874 C305.292722,329.891286 309.081109,328.993247 314.631783,330.014014 C314.202198,327.89885 313.997171,326.23327 314.022155,324.864891 C313.961569,324.675157 313.966875,324.472394 314.02144,324.361251 C314.11449,322.153644 314.776714,320.458789 316.138395,319.094815 C316.251568,318.98145 316.374682,318.867957 316.471038,318.798929 C316.5106,318.734821 316.556478,318.676027 316.609559,318.622857 C316.710572,318.521674 316.829497,318.446528 316.892129,318.436827 C318.290095,317.36663 320.147433,316.688196 322.333703,316.440402 C322.589942,316.414493 322.817416,316.393505 323.016125,316.377435 C324.529016,316.27058 326.167796,316.361129 327.886968,316.649027 C327.337573,314.039428 327.137728,312.605626 327.193405,311.240513 C327.157195,311.081144 327.165953,310.91577 327.206241,310.822271 C327.352982,308.746832 328.159015,307.018755 329.867967,305.274651 C330.233668,304.908441 330.793825,304.908441 331.15947,305.274702 C331.525064,305.64102 331.525064,306.202119 331.159402,306.568397 C331.059331,306.668588 330.962474,306.769344 330.868506,306.870923 L340.062038,316.079939 Z M329.763187,308.351098 C329.350373,309.078668 329.110757,309.832427 329.01565,310.675317 L336.207144,317.814027 C336.227246,317.834198 336.246325,317.85513 336.264388,317.876783 C337.099159,317.788466 337.847007,317.560895 338.565544,317.168281 L329.763187,308.351098 Z M329.103675,313.368299 C329.223587,314.254019 329.42844,315.288985 329.810086,317.039351 C331.552402,317.425667 332.571735,317.632829 333.448233,317.759371 L329.103675,313.368299 Z M324.917868,318.168538 L328.713926,321.971017 C328.669553,320.88591 328.529187,319.7422 328.293712,318.559234 C327.130154,318.333169 325.997808,318.202778 324.917868,318.168538 Z M328.648178,324.340958 C328.605068,324.309138 328.563262,324.272601 328.521802,324.231072 L322.558746,318.257973 C321.053372,318.430666 319.745624,318.82739 318.703463,319.426767 L327.51375,328.251893 C328.106264,327.18956 328.491012,325.865213 328.648178,324.340958 Z M316.638557,330.432871 C317.951346,330.711 319.052593,330.904469 320.022875,331.021066 L316.008471,326.999837 C316.134443,327.994321 316.342518,329.118029 316.638557,330.432871 Z M311.67287,331.530155 L315.512856,335.376609 C315.453457,334.357472 315.302747,333.245259 315.058917,332.021095 C313.813523,331.764798 312.692981,331.601777 311.67287,331.530155 Z M314.522825,341.059 C315.00631,340.111502 315.313787,339.072447 315.453937,337.904868 L309.12004,331.560303 C307.94382,331.688125 306.900595,331.986993 305.946789,332.468521 L314.522825,341.059 Z M326.393933,329.717467 L317.259499,320.567649 C316.408963,321.506899 315.969516,322.709874 315.880161,324.284026 L322.718061,331.133443 C324.285345,331.036124 325.47094,330.58753 326.393933,329.717467 Z" id="evolving"></path>
            </g>
        </g>
    </g>
</svg>