<?xml version="1.0" encoding="UTF-8"?>
<svg width="40px" height="40px" viewBox="0 0 40 40" version="1.1" xmlns="http://www.w3.org/2000/svg" xmlns:xlink="http://www.w3.org/1999/xlink">
    <!-- Generator: sketchtool 51.1 (57501) - http://www.bohemiancoding.com/sketch -->
    <title>5923E8C8-53A8-4BC2-97B9-3870B104208C</title>
    <desc>Created with sketchtool.</desc>
    <defs></defs>
    <g id="Page-1" stroke="none" stroke-width="1" fill="none" fill-rule="evenodd">
        <g id="Home" transform="translate(-171.000000, -1318.000000)" fill="#8D89FF" fill-rule="nonzero">
            <g id="section-2" transform="translate(149.000000, 1013.000000)">
                <path d="M44.2932241,338.915528 C44.6137281,338.595024 45.1333677,338.595024 45.4538716,338.915528 C45.7743756,339.236032 45.7743756,339.755671 45.4538716,340.076175 L41.2986983,344.231348 L41.0917403,344.231348 L36.936567,340.076175 C36.616063,339.755671 36.616063,339.236032 36.936567,338.915528 C37.2570709,338.595024 37.7767105,338.595024 38.0972145,338.915528 L40.3521748,341.170488 C40.3521523,340.703415 40.3521881,340.36869 40.3523049,340.120163 C40.3523901,339.835138 40.3525945,339.607087 40.3531565,339.094032 C40.3542802,338.06811 40.3544164,337.612049 40.3532248,337.042128 C40.3523608,336.40587 40.5596747,336.046186 41.129692,336.025683 C41.7412494,336.003498 42.013513,336.382873 42.0127129,337.034007 C42.0122198,337.387183 42.0122198,337.387183 42.011706,337.763791 C42.010726,338.49127 42.0100443,339.079246 42.0095716,339.648121 C42.0090993,340.216615 42.0088738,340.732378 42.0089254,341.199826 L44.2932241,338.915528 Z M54.1090756,332.171925 C54.4295796,331.851421 54.9492192,331.851421 55.2697231,332.171925 C55.5902271,332.492429 55.5902271,333.012069 55.2697231,333.332573 L51.1145498,337.487746 L50.9075918,337.487746 L46.7524185,333.332573 C46.4319145,333.012069 46.4319145,332.492429 46.7524185,332.171925 C47.0729224,331.851421 47.592562,331.851421 47.913066,332.171925 L49.9896146,334.248474 C49.972717,332.02175 49.3371106,330.164027 47.9517057,328.586253 C47.0134784,327.517363 45.8888646,326.711196 44.5506726,326.140478 C44.2037631,325.992641 43.8291096,325.423457 43.8859879,325.09097 C43.9808517,324.535563 44.5062113,324.322029 45.1104356,324.532436 C47.6868026,325.429429 49.5698112,327.147719 50.7746264,329.66333 C51.4399049,331.05198 51.7666401,332.539079 51.7612942,334.116056 C51.7607929,334.245093 51.7604901,334.376837 51.7603496,334.520651 L54.1090756,332.171925 Z M33.474614,315.284936 C33.4784181,315.476696 33.4875419,315.650378 33.5032122,315.818479 C33.8234401,319.237007 35.4456513,321.681116 38.4409343,323.139797 C38.4707707,323.154318 38.490001,323.163155 38.5432203,323.186918 C38.5746257,323.200799 38.7151709,323.261295 38.7530506,323.278051 C39.3811659,323.555883 39.6257366,323.865258 39.3774419,324.439927 C39.0654373,325.160773 38.5415563,325.159797 37.6664257,324.746641 C34.6788202,323.336345 32.7942121,321.050995 32.0821464,317.901424 C31.9572511,317.348631 31.9049821,316.845972 31.8495842,315.905436 C31.8459189,315.843013 31.8459189,315.843013 31.8422798,315.78065 C31.8359667,315.67247 31.8308749,315.586196 31.8263833,315.512241 L29.6661464,317.672478 C29.3456424,317.992982 28.8260028,317.992982 28.5054989,317.672478 C28.1849949,317.351974 28.1849949,316.832334 28.5054989,316.51183 L32.6606722,312.356657 L32.8676302,312.356657 L37.0228035,316.51183 C37.3433075,316.832334 37.3433075,317.351974 37.0228035,317.672478 C36.7022996,317.992982 36.18266,317.992982 35.862156,317.672478 L33.474614,315.284936 Z M42.0021071,312.418512 C42.0012123,313.157531 41.7925121,313.530486 41.1392109,313.516556 C40.5271156,313.502894 40.3423201,313.145914 40.3441518,312.440168 C40.3485338,310.70532 40.3475088,309.589633 40.3377203,308.437781 C40.337173,308.377822 40.3349107,308.295542 40.3311769,308.196214 L38.2115704,310.315821 C37.8910665,310.636325 37.3714269,310.636325 37.050923,310.315821 C36.730419,309.995317 36.730419,309.475677 37.050923,309.155173 L41.2060962,305 L41.4130543,305 L45.5682276,309.155173 C45.8887316,309.475677 45.8887316,309.995317 45.5682276,310.315821 C45.2477237,310.636325 44.7280841,310.636325 44.4075801,310.315821 L42.0164956,307.924736 C42.0093256,309.217898 42.00426,310.924687 42.0021071,312.418512 Z M26.3424581,323.934249 C26.6204705,323.935102 26.8011208,323.935582 27.2533675,323.93669 C27.6991837,323.937725 27.6991837,323.937725 28.1256968,323.938684 C28.4884652,323.939524 28.4884652,323.939524 28.8271669,323.940414 C29.6242513,323.942475 29.9603218,324.087786 29.982742,324.732596 C30.0070515,325.427862 29.6350357,325.613375 28.8241111,325.612404 C27.4809319,325.610336 26.1219378,325.60983 25.0165039,325.611515 L27.3147195,327.928882 C27.6338908,328.250713 27.6317347,328.770348 27.3099036,329.08952 C26.9880725,329.408691 26.4684374,329.406535 26.1492661,329.084704 L22,324.90086 L22,324.694763 L26.1492661,320.51092 C26.4684374,320.189088 26.9880725,320.186932 27.3099036,320.506104 C27.6317347,320.825275 27.6338908,321.34491 27.3147195,321.666741 L25.0709528,323.929206 C25.4530384,323.931168 25.871914,323.932806 26.3424581,323.934249 Z M33.3539223,333.095031 C36.6046716,332.669966 38.907568,330.865176 40.2032057,327.781232 C40.5363495,326.9885 40.7124493,326.023487 40.7395909,324.991927 C40.8277106,321.617942 42.1266958,318.889377 44.6614632,316.844362 C46.4534686,315.398962 48.5392039,314.658603 50.8386593,314.661713 C51.0238031,314.66189 51.2120251,314.661974 51.4277472,314.661986 L49.1723536,312.406592 C48.8518497,312.086088 48.8518497,311.566449 49.1723536,311.245945 C49.4928576,310.925441 50.0124972,310.925441 50.3330011,311.245945 L54.4881744,315.401118 L54.4881744,315.608076 L50.3330011,319.76325 C50.0124972,320.083754 49.4928576,320.083754 49.1723536,319.76325 C48.8518497,319.442746 48.8518497,318.923106 49.1723536,318.602602 L51.4117345,316.363221 C48.7089692,316.384316 46.475634,317.329658 44.7134399,319.287489 C43.3099038,320.846735 42.5803991,322.622114 42.5660832,324.629531 C42.5337504,329.161442 40.00875,332.826346 35.8249104,334.318795 C35.085442,334.582443 34.4458494,334.670624 33.0191179,334.770936 C32.6750207,334.795125 32.4647666,334.81067 32.283268,334.826389 L34.6729064,337.216028 C34.9934104,337.536532 34.9934104,338.056171 34.6729064,338.376675 C34.3524025,338.697179 33.8327629,338.697179 33.512259,338.376675 L29.3570857,334.221502 L29.3570857,334.014544 L33.512259,329.859371 C33.8327629,329.538867 34.3524025,329.538867 34.6729064,329.859371 C34.9934104,330.179875 34.9934104,330.699514 34.6729064,331.020018 L32.5444274,333.148497 C32.8427533,333.144379 33.1035329,333.127752 33.3539223,333.095031 Z M55.915956,321.711411 C55.5954521,321.390907 55.5954521,320.871267 55.915956,320.550763 C56.23646,320.230259 56.7560996,320.230259 57.0766035,320.550763 L61.2317768,324.705937 L61.2317768,324.912895 L57.0766035,329.068068 C56.7560996,329.388572 56.23646,329.388572 55.915956,329.068068 C55.5954521,328.747564 55.5954521,328.227924 55.915956,327.90742 L58.2292892,325.594087 L54.780402,325.594087 C54.6593108,325.59416 54.6593108,325.59416 54.5382299,325.594224 C53.9329677,325.594545 53.663991,325.594867 53.3277656,325.595937 C52.704805,325.597625 52.3387102,325.362087 52.3432933,324.784788 C52.3479731,324.219176 52.7182045,323.949896 53.3171927,323.948309 C55.3435031,323.943221 56.2441391,323.941011 57.3701867,323.938441 C57.4832043,323.938226 57.7420017,323.938147 58.1427153,323.93817 L55.915956,321.711411 Z M40.3259218,316.009034 C40.3245544,315.953243 40.3245544,315.953243 40.323583,315.89873 L40.3231218,315.873243 C40.311087,315.267899 40.584632,314.944276 41.1614636,314.944276 C41.8130754,314.944276 42.0716594,315.167829 42.0716594,315.870334 C42.0716594,316.654108 41.8136693,317.00336 41.1570377,316.983326 C40.5354558,316.964676 40.3437071,316.646577 40.3259218,316.009034 Z M32.3654259,323.920501 C33.1131837,323.927828 33.4399769,324.105742 33.4295917,324.78912 C33.4197056,325.42997 33.114624,325.597018 32.406325,325.609371 C31.7607504,325.629806 31.3908436,325.376152 31.3980059,324.752506 C31.4045853,324.172462 31.7692452,323.913964 32.3654259,323.920501 Z M48.9041388,324.717446 C48.885389,325.399999 49.1571736,325.573917 49.991928,325.542555 C50.6541948,325.602653 50.9590352,325.3946 50.9632441,324.781314 C50.9674502,324.172329 50.6528295,323.949413 49.9676481,323.979778 L49.9475155,323.980673 L49.916345,323.982039 C49.1197448,324.016849 48.9203304,324.123627 48.9041388,324.717446 Z M41.1589581,332.559257 C41.8264261,332.552979 41.9859695,332.849073 42.0162368,333.602236 C42.0168937,333.618587 42.0168937,333.618587 42.0175576,333.634901 C42.0418638,334.231835 41.7653272,334.603349 41.1881205,334.607439 C40.5684053,334.611472 40.2778536,334.227138 40.3496522,333.657897 L40.3499473,333.645959 C40.3695598,332.852865 40.5116789,332.566079 41.1589581,332.559257 Z" id="versatile"></path>
            </g>
        </g>
    </g>
</svg>